<svg width="30" height="30" viewBox="0 0 30 30" fill="none" xmlns="http://www.w3.org/2000/svg">
<path fill-rule="evenodd" clip-rule="evenodd" d="M15 0C6.71573 0 0 6.71573 0 15C0 23.2843 6.71573 30 15 30C23.2843 30 30 23.2843 30 15C30 6.71573 23.2843 0 15 0ZM22.8368 13.3806C22.945 13.9061 23.0001 14.4475 23.0001 14.989C23.0001 15.53 22.945 16.0703 22.8368 16.5969C22.7313 17.111 22.5751 17.6158 22.3704 18.0983C22.1704 18.5723 21.9223 19.0291 21.6325 19.455C21.3469 19.8783 21.018 20.2754 20.6566 20.6374C20.2945 20.9978 19.896 21.3258 19.473 21.6126C19.0456 21.9004 18.5882 22.1481 18.1139 22.3491C17.6307 22.5527 17.1248 22.7087 16.6111 22.814C16.0838 22.9225 15.5415 22.9778 14.9997 22.9778C14.4575 22.9778 13.9153 22.9225 13.3887 22.814C12.8742 22.7087 12.3684 22.5527 11.8855 22.3491C11.4113 22.1481 10.9534 21.9004 10.5261 21.6126C10.103 21.3258 9.70454 20.9978 9.34319 20.6374C8.98146 20.2754 8.65252 19.8783 8.36657 19.455C8.07828 19.0291 7.82981 18.5723 7.62903 18.0983C7.42431 17.6158 7.26768 17.111 7.16181 16.5969C7.05479 16.0703 7.00008 15.53 7.00008 14.989C7.00008 14.4475 7.05475 13.9061 7.16184 13.3806C7.26771 12.8665 7.42434 12.361 7.62906 11.8792C7.82984 11.4049 8.07831 10.9477 8.3666 10.5217C8.65255 10.0981 8.98149 9.70177 9.34322 9.33938C9.70457 8.97892 10.103 8.65168 10.5261 8.36536C10.9534 8.07629 11.4113 7.82862 11.8855 7.62732C12.3684 7.42326 12.8742 7.26686 13.3887 7.16234C13.9153 7.05468 14.4575 7.00006 14.9998 7.00006C15.5416 7.00006 16.0838 7.05468 16.6111 7.16234C17.1248 7.26689 17.6307 7.4233 18.114 7.62732C18.5882 7.82859 19.0457 8.07629 19.473 8.36536C19.8961 8.65168 20.2946 8.97892 20.6567 9.33938C21.018 9.70177 21.347 10.0981 21.6325 10.5217C21.9223 10.9477 22.1704 11.4049 22.3704 11.8792C22.5751 12.361 22.7313 12.8665 22.8368 13.3806Z" fill="black"/>
<path fill-rule="evenodd" clip-rule="evenodd" d="M19.5111 9.86942L19.5117 9.86851C18.3089 8.80942 16.7295 8.16699 14.9997 8.16699C14.4446 8.16699 13.9059 8.23409 13.3899 8.35813L13.401 8.373C13.5628 8.58936 14.8077 10.2544 15.9439 12.3377C18.5007 11.3806 19.4788 9.91767 19.5111 9.86942ZM20.2755 10.6554C20.2489 10.6934 19.1499 12.2612 16.4698 13.3543C16.6284 13.6796 16.7819 14.0107 16.9237 14.3435C16.9741 14.4629 17.0233 14.5799 17.0714 14.6969C19.3734 14.4077 21.642 14.8795 21.8214 14.9168L21.8294 14.9185C21.8138 13.3012 21.2345 11.8169 20.2759 10.6549L20.2755 10.6554ZM17.4877 15.7735C18.3838 18.2326 18.7479 20.2353 18.8175 20.6464C20.3515 19.6127 21.441 17.9713 21.7449 16.07C21.6043 16.0247 19.6929 15.4205 17.4877 15.7735ZM16.2077 16.0895C17.169 18.5844 17.5659 20.6737 17.6671 21.2698C16.8471 21.6181 15.9459 21.8104 14.9998 21.8104C13.4153 21.8104 11.9606 21.267 10.8007 20.3663C10.815 20.3355 12.1313 17.5075 16.1623 16.1043C16.1718 16.1008 16.1814 16.0978 16.1911 16.0948L16.2077 16.0895ZM15.1876 13.7998C15.3833 14.1829 15.5705 14.5714 15.7419 14.9591C15.6521 14.9849 15.5615 15.0114 15.4724 15.041C11.7855 16.2316 9.91586 19.5437 9.9182 19.5473C8.82987 18.3392 8.16772 16.7414 8.16772 14.9888C8.16772 14.9382 8.16939 14.8887 8.17108 14.8388C8.17183 14.8164 8.17259 14.7939 8.1732 14.7711C8.29429 14.7758 11.6699 14.8514 15.1876 13.7998ZM14.6216 12.7493C13.4391 10.6514 12.1758 8.9394 12.0847 8.81806C10.1795 9.71644 8.75759 11.4695 8.3142 13.5821C8.3161 13.5822 8.31829 13.5822 8.32077 13.5822C8.55424 13.5844 11.3758 13.6105 14.6216 12.7493Z" fill="black"/>
</svg>
