<svg width="30" height="30" viewBox="0 0 30 30" fill="none" xmlns="http://www.w3.org/2000/svg">
<path fill-rule="evenodd" clip-rule="evenodd" d="M15 0C6.71573 0 0 6.71573 0 15C0 23.2843 6.71573 30 15 30C23.2843 30 30 23.2843 30 15C30 6.71573 23.2843 0 15 0ZM11.7021 7.04839C12.5555 7.00956 12.8281 7.00006 15.0008 7.00006H14.9983C17.1717 7.00006 17.4434 7.00956 18.2967 7.04839C19.1484 7.08739 19.73 7.22223 20.2401 7.42006C20.7667 7.62423 21.2117 7.89757 21.6567 8.34257C22.1017 8.78724 22.3751 9.23358 22.5801 9.75975C22.7767 10.2684 22.9117 10.8498 22.9517 11.7014C22.9901 12.5548 23.0001 12.8274 23.0001 15.0001C23.0001 17.1728 22.9901 17.4448 22.9517 18.2982C22.9117 19.1495 22.7767 19.731 22.5801 20.2399C22.3751 20.7659 22.1017 21.2122 21.6567 21.6569C21.2122 22.1019 20.7666 22.3759 20.2406 22.5802C19.7315 22.7781 19.1495 22.9129 18.2979 22.9519C17.4445 22.9907 17.1727 23.0002 14.9998 23.0002C12.8273 23.0002 12.5548 22.9907 11.7015 22.9519C10.85 22.9129 10.2684 22.7781 9.75944 22.5802C9.23361 22.3759 8.78727 22.1019 8.34276 21.6569C7.89792 21.2122 7.62459 20.7659 7.42009 20.2397C7.22242 19.731 7.08758 19.1497 7.04842 18.298C7.00975 17.4447 7.00008 17.1728 7.00008 15.0001C7.00008 12.8274 7.01008 12.5546 7.04825 11.7013C7.08658 10.8499 7.22158 10.2684 7.41992 9.75959C7.62492 9.23358 7.89826 8.78724 8.34326 8.34257C8.78793 7.89773 9.23427 7.6244 9.76044 7.42006C10.2691 7.22223 10.8505 7.08739 11.7021 7.04839Z" fill="black"/>
<path fill-rule="evenodd" clip-rule="evenodd" d="M14.283 8.4417C14.4223 8.44148 14.5723 8.44155 14.734 8.44162L15.0007 8.4417C17.1367 8.4417 17.3899 8.44936 18.2334 8.4877C19.0134 8.52336 19.4367 8.6537 19.7187 8.7632C20.092 8.9082 20.3582 9.08154 20.6381 9.36154C20.9181 9.64154 21.0914 9.90821 21.2367 10.2815C21.3462 10.5632 21.4767 10.9866 21.5122 11.7666C21.5506 12.6099 21.5589 12.8632 21.5589 14.9983C21.5589 17.1333 21.5506 17.3866 21.5122 18.23C21.4766 19.01 21.3462 19.4333 21.2367 19.715C21.0917 20.0883 20.9181 20.3542 20.6381 20.634C20.3581 20.914 20.0922 21.0873 19.7187 21.2323C19.437 21.3423 19.0134 21.4723 18.2334 21.508C17.39 21.5463 17.1367 21.5547 15.0007 21.5547C12.8645 21.5547 12.6113 21.5463 11.768 21.508C10.988 21.472 10.5646 21.3417 10.2824 21.2322C9.90911 21.0872 9.64244 20.9138 9.36244 20.6338C9.08243 20.3538 8.9091 20.0878 8.76376 19.7143C8.65426 19.4326 8.52376 19.0093 8.48826 18.2293C8.44993 17.386 8.44226 17.1326 8.44226 14.9963C8.44226 12.8599 8.44993 12.6079 8.48826 11.7646C8.52393 10.9846 8.65426 10.5612 8.76376 10.2792C8.90877 9.90588 9.08243 9.63921 9.36244 9.35921C9.64244 9.0792 9.90911 8.90587 10.2824 8.76053C10.5644 8.65053 10.988 8.52053 11.768 8.4847C12.506 8.45136 12.792 8.44136 14.283 8.4397V8.4417ZM19.271 9.77005C18.741 9.77005 18.311 10.1996 18.311 10.7297C18.311 11.2597 18.741 11.6897 19.271 11.6897C19.801 11.6897 20.231 11.2597 20.231 10.7297C20.231 10.1997 19.801 9.76972 19.271 9.76972V9.77005ZM10.8924 15.0001C10.8924 12.7313 12.7318 10.8918 15.0006 10.8917C17.2694 10.8917 19.1084 12.7312 19.1084 15.0001C19.1084 17.269 17.2696 19.1076 15.0007 19.1076C12.7319 19.1076 10.8924 17.269 10.8924 15.0001Z" fill="black"/>
<path d="M15.0008 12.3335C16.4735 12.3335 17.6675 13.5273 17.6675 15.0002C17.6675 16.4729 16.4735 17.6669 15.0008 17.6669C13.528 17.6669 12.3341 16.4729 12.3341 15.0002C12.3341 13.5273 13.528 12.3335 15.0008 12.3335Z" fill="black"/>
</svg>
