<svg width="30" height="30" viewBox="0 0 30 30" fill="none" xmlns="http://www.w3.org/2000/svg">
<path fill-rule="evenodd" clip-rule="evenodd" d="M15 0C6.71573 0 0 6.71573 0 15C0 23.2843 6.71573 30 15 30C23.2843 30 30 23.2843 30 15C30 6.71573 23.2843 0 15 0ZM16.8404 21.6799H23.4274C23.4628 21.5073 23.4316 21.3803 23.2997 21.2573C23.0259 21.0021 22.7592 20.7393 22.4925 20.4764C22.364 20.3498 22.2354 20.2231 22.1061 20.0973C22.0156 20.0093 21.9708 19.9061 21.975 19.7805C21.9775 19.7072 21.9797 19.6339 21.9797 19.5605C21.9797 19.2509 21.9798 18.9413 21.9799 18.6318C21.9801 17.2043 21.9804 15.7769 21.9797 14.3494C21.9792 13.3124 21.9776 12.2753 21.9761 11.2382C21.9756 10.8972 21.9751 10.5561 21.9746 10.215C21.9744 10.0939 22.0205 9.99533 22.1084 9.91168C22.2404 9.78612 22.3716 9.65977 22.5028 9.53343C22.7831 9.26357 23.0634 8.99372 23.3508 8.73161C23.4854 8.60887 23.4888 8.48247 23.4621 8.32827C23.4508 8.32762 23.4402 8.32686 23.43 8.32613C23.4093 8.32465 23.3905 8.3233 23.3716 8.3233C23.0429 8.32324 22.7142 8.32325 22.3855 8.32326C21.2281 8.32329 20.0706 8.32332 18.9132 8.32063C18.8233 8.32044 18.7974 8.36137 18.7693 8.43139C17.6999 11.0995 16.6289 13.7669 15.5578 16.4343C15.5464 16.4627 15.5335 16.4905 15.5181 16.5235C15.5101 16.5407 15.5014 16.5593 15.4919 16.5801C15.4815 16.5586 15.4721 16.5395 15.4635 16.5219C15.447 16.4885 15.4333 16.4605 15.4203 16.4322L15.0906 15.7102C13.9843 13.2874 12.878 10.8647 11.7739 8.44098C11.7353 8.35633 11.6958 8.32004 11.5958 8.32031C10.3433 8.32353 9.09088 8.32335 7.83842 8.32316C7.54758 8.32312 7.25673 8.32308 6.96589 8.32308H6.80685C6.81572 8.36415 6.82061 8.40642 6.82535 8.44745C6.83515 8.53231 6.84434 8.61185 6.88691 8.6644C7.29947 9.17383 7.72062 9.67633 8.14176 10.1788C8.24722 10.3046 8.35267 10.4305 8.45799 10.5564C8.56448 10.6837 8.61715 10.8283 8.61705 10.9943C8.6158 13.4449 8.61509 15.8955 8.61463 18.3461C8.61463 18.4071 8.61507 18.4686 8.62171 18.5291C8.64892 18.7777 8.58011 18.9964 8.42183 19.1882C8.28117 19.3586 8.14079 19.5292 8.00041 19.6998C7.58103 20.2096 7.16166 20.7193 6.73488 21.2228C6.61935 21.3591 6.61085 21.4916 6.62665 21.6463H11.6298C11.6716 21.468 11.6193 21.3373 11.5067 21.2039C11.1 20.7216 10.6987 20.2347 10.2973 19.7478C10.1409 19.5579 9.98439 19.3681 9.8276 19.1786C9.68091 19.0012 9.61291 18.7974 9.61773 18.5685C9.61856 18.5293 9.61981 18.4901 9.62107 18.4509C9.6232 18.3842 9.62534 18.3175 9.62535 18.2507C9.62573 16.6469 9.6257 15.0431 9.62568 13.4393C9.62568 13.0533 9.62567 12.6672 9.62567 12.2812V12.1347C9.6753 12.1731 9.69492 12.2123 9.71322 12.2521C10.1872 13.2846 10.6613 14.3171 11.1353 15.3496C12.046 17.3333 12.9567 19.3171 13.8675 21.3008C13.883 21.3346 13.8963 21.3722 13.9095 21.41C13.9413 21.5001 13.9731 21.5907 14.0366 21.6308C14.0974 21.6693 14.1842 21.6646 14.2726 21.6598C14.3214 21.6571 14.3708 21.6545 14.4165 21.659C14.5167 21.669 14.5557 21.6279 14.5911 21.5379C15.719 18.6705 16.8496 15.8041 17.9802 12.9377L18.2589 12.2313C18.2684 12.2072 18.2789 12.1836 18.2894 12.1599C18.2944 12.1487 18.2994 12.1375 18.3042 12.1262C18.3246 12.1485 18.3268 12.1671 18.3268 12.1857C18.3268 12.7487 18.3267 13.3116 18.3267 13.8746C18.3266 15.8275 18.3264 17.7804 18.328 19.7333C18.3281 19.8872 18.2765 20.0045 18.1652 20.1106C18.0078 20.2608 17.8522 20.4128 17.6966 20.5648C17.4524 20.8034 17.2081 21.0421 16.9571 21.2733C16.823 21.3968 16.8224 21.5241 16.8404 21.6799Z" fill="black"/>
</svg>
