<svg width="30" height="30" viewBox="0 0 30 30" fill="none" xmlns="http://www.w3.org/2000/svg">
<path fill-rule="evenodd" clip-rule="evenodd" d="M15 0C6.71573 0 0 6.71573 0 15C0 23.2843 6.71573 30 15 30C23.2843 30 30 23.2843 30 15C30 6.71573 23.2843 0 15 0ZM14.9427 13.1751L14.9073 12.5912C14.8011 11.0778 15.7336 9.69548 17.209 9.15923C17.752 8.96857 18.6727 8.94473 19.2747 9.11157C19.5108 9.18307 19.9593 9.4214 20.278 9.6359L20.8564 10.0291L21.4938 9.82656C21.8479 9.71931 22.3201 9.54056 22.5325 9.4214C22.7332 9.31415 22.9102 9.25457 22.9102 9.29031C22.9102 9.4929 22.4735 10.1841 22.1076 10.5654C21.6118 11.1016 21.7535 11.1493 22.7568 10.7918C23.3588 10.5892 23.3706 10.5892 23.2526 10.8156C23.1817 10.9348 22.8158 11.3519 22.4263 11.7332C21.7653 12.3886 21.7299 12.4601 21.7299 13.0083C21.7299 13.8544 21.3285 15.618 20.9272 16.5833C20.1836 18.3946 18.5901 20.2655 16.9966 21.2069C14.7539 22.5297 11.7675 22.8633 9.25335 22.0887C8.41528 21.8266 6.97523 21.1592 6.97523 21.0401C6.97523 21.0043 7.41197 20.9567 7.94314 20.9447C9.05268 20.9209 10.1622 20.6111 11.1065 20.0629L11.7439 19.6816L11.0121 19.4313C9.97337 19.0738 9.04088 18.2516 8.80481 17.477C8.73398 17.2268 8.75759 17.2148 9.4186 17.2148L10.1032 17.2029L9.52483 16.9289C8.84022 16.5833 8.21462 15.9994 7.90772 15.4035C7.68345 14.9745 7.40017 13.8901 7.48279 13.8067C7.5064 13.771 7.75428 13.8425 8.03757 13.9378C8.85202 14.2357 8.95825 14.1642 8.48611 13.6637C7.60083 12.758 7.32934 11.4115 7.75428 10.1364L7.95494 9.5644L8.73398 10.339C10.3275 11.9 12.2043 12.8295 14.3526 13.1036L14.9427 13.1751Z" fill="black"/>
</svg>
