<svg fill="none" height="16" viewBox="0 0 17 16" width="17" xmlns="http://www.w3.org/2000/svg"><path d="m0 8.67237v-1.33959c.0728341-.17613.0647787-.36669.0923012-.5502.6454378-4.29691 4.6989688-7.313596 9.0109488-6.7043537 2.07865.2893587 3.96035 1.3833837 5.23965 3.0463437 1.2794 1.66296 1.8538 3.76172 1.5997 5.84404-.4138 3.47259-3.0785 6.29199-6.52284 6.90629-.26012.0463-.52696.0514-.78238.1255h-1.30564c-.09096-.0671-.20139-.0463-.30208-.058-3.46314-.41-6.289908-3.0808-6.904467-6.5229-.0443042-.24826-.0456461-.50457-.125193-.74713zm7.38611-5.38455c.17688-.08622.32356-.21672.47762-.33548.0772-.05938.13224-.05335.20138 0 .14131.1097.28631.21437.46017.34353-.02283-.20498-.08895-.36333-.14869-.52-.04766-.12581-.02719-.20129.08693-.27409.13996-.09025.26851-.19928.40109-.30194-.00671-.01443-.01309-.02919-.0198-.04395-.17655 0-.35377-.0057-.52998.00235-.10069.00436-.14735-.0302-.17621-.12782-.04934-.16775-.08626-.34018-.18528-.52671-.06343.1986-.11915.36131-.16782.52637-.02752.09461-.07719.1342-.17956.1285-.18091-.00806-.3625-.00202-.54408-.00202.13103.13909.27741.2629.43634.36904.08458.0577.09867.1144.0641.20867-.06712.18284-.11948.36903-.17822.55556l.00738-.00906zm-4.42744 5.5788c-.06142-.18955-.10841-.3536-.16782-.51296-.04229-.11272-.03927-.19156.07921-.26.11849-.06844.22522-.16271.33565-.24792.02047-.01577.04699-.04362.04497-.06341-.00403-.04462-.04833-.03523-.07921-.03557-.145 0-.29033-.00771-.43465 0-.1111.00705-.15776-.03992-.18629-.14157-.04497-.16003-.0829-.32374-.17151-.48947-.08794.15197-.11949.29992-.15708.44284-.03759.14291-.10069.20129-.2524.18921s-.31785-.00335-.5095-.00335c.12385.14895.25743.22981.38397.31167.13996.09058.18091.17646.11278.33951-.06042.14493-.12318.29556-.14232.48209.13896-.10064.26852-.1825.37827-.28181.12956-.11507.23495-.12782.36921-.00335.11732.11171.25155.20421.39773.27409zm10.34043-2.81809.0376-.0218c-.0547-.17345-.1007-.34958-.1678-.51933-.0336-.08924-.0218-.13789.058-.19257.1491-.10065.289-.21706.433-.32677l-.0144-.04227c-.1702 0-.3407-.00537-.5109 0-.1047.0047-.157-.02549-.1906-.13419-.0507-.16305-.0796-.33549-.1886-.52068-.0554.17479-.1078.31939-.1467.46734-.0359.13788-.1007.2033-.2558.18854-.1587-.0151-.3202-.00335-.4803-.00335.1325.13916.2802.26296.4404.36903.0802.05401.094.10266.0611.19089-.0651.17445-.1178.35327-.1756.53041.1673-.08437.3249-.18674.4699-.3053.0759-.06105.1279-.05669.2014 0 .1413.11642.2873.21673.4303.3214zm-11.04695-1.10307-.00806.03354c.15004.11306.29772.23015.45178.33784.07149.04965.08961.09427.05806.17881-.06713.17748-.11814.35965-.18527.57033.19434-.09863.33195-.22008.47459-.3318.0819-.06407.13426-.05971.21247.00302.13996.11239.28932.21304.43465.31871-.02482-.18004-.07055-.35658-.13627-.52604-.03893-.10333-.02853-.16774.07183-.23115.14768-.0946.28328-.20833.42391-.31401-.16749-.03615-.33937-.04756-.51017-.03388-.12855.00939-.18796-.03355-.2222-.15835-.04262-.156-.07753-.31737-.17856-.49048-.06075.18217-.12083.33045-.15875.4841-.03055.12413-.08627.17378-.21784.16473-.16916-.01275-.33966-.00403-.50916-.00403zm0 5.57474-.0188.0356c.15373.1154.30477.2348.46252.3442.07182.0503.08894.0986.05739.1812-.05571.1452-.10069.2952-.14969.4425-.00839.0245-.03122.0439 0 .0714.03121.0275.05202 0 .06947-.0137.11983-.0812.242-.1594.35343-.2506.08458-.0695.14567-.0886.23864-.0064.12855.1134.27422.2077.43097.3241-.00672-.2084-.08693-.3734-.14366-.5432-.03356-.0983-.02383-.1577.06914-.2191.14869-.0983.2853-.2147.42694-.3234l-.01846-.0426c-.17084 0-.34202-.0077-.51219.0027-.11546.0067-.16782-.0315-.20138-.1432-.04565-.1601-.07854-.3275-.17991-.50327-.06477.19897-.12217.36067-.16782.52567-.02551.0889-.06712.1265-.16379.1222-.18292-.0081-.36719-.0027-.55079-.0027zm2.93887-8.21938-.04028-.00335c-.04699.14728-.10069.29321-.13929.44284-.03356.13084-.09431.19391-.24132.18015-.16178-.01509-.32625-.00335-.48937-.00335.12044.13724.25912.25734.41217.35696.09834.06508.11311.13419.07384.23786-.06176.16405-.11143.3328-.17587.52939.14815-.07644.28579-.17173.40948-.28348.11982-.10065.21246-.1144.33866-.00235.12051.11583.2596.21064.41149.28046-.06075-.18854-.10304-.34991-.16513-.50322-.05102-.12447-.02887-.19794.08492-.27443.13862-.09259.28261-.18452.41988-.34086-.21346 0-.39001-.00503-.56622.00202-.1007.00402-.1497-.02919-.17622-.12849-.04262-.16305-.10169-.32274-.15472-.4878zm1.87959 10.99258-.01678.0412c.1366.1027.26851.2134.41116.305.11311.0724.12251.1479.07652.2647-.06243.1577-.10606.323-.15775.4851.14855-.0695.28698-.1587.4115-.2654.11009-.0963.19501-.1093.31047-.005s.25173.1848.40612.2955c-.0245-.2197-.10069-.3824-.15674-.5481-.03357-.1007-.01578-.151.06478-.2077.14734-.1037.28865-.2161.4323-.3244l-.01242-.0416c-.18057 0-.36115-.004-.54172.002-.09398.003-.13426-.0336-.16514-.1218-.05672-.1677-.08324-.3479-.1893-.5284-.0631.1902-.12318.3513-.16782.5167-.0292.106-.08492.1389-.19064.1342-.17084-.0054-.34236.0003-.51353.0003zm2.78313-.7401-.01275.0335c.12654.0953.24501.204.38131.2825.1581.0909.1792.1956.1091.3536-.0598.1342-.096.2791-.143.4194.0621.0248.0923-.0158.1272-.0386.1527-.1007.2873-.304.4484-.2899s.3182.1855.4518.3197c.0085.0109.0203.0186.0337.022.0134.0033.0275.0021.0401-.0035.0336-.0158.0097-.0406.0061-.0671-.018-.1267-.0545-.25-.1085-.366-.0751-.1617-.0375-.2597.1115-.3526.1426-.0815.2704-.1864.3782-.3103-.2225 0-.3994-.0054-.5759.002-.095.004-.1383-.0282-.1635-.1198-.0466-.1698-.1064-.3355-.1698-.5311-.1007.1802-.1343.3489-.1853.511-.0319.1043-.0755.1436-.1842.1382-.18-.0071-.3605-.0007-.54345-.0007zm4.56976-4.74279-.003-.05368c-.1642 0-.3293-.00973-.4927.00302-.1313.01006-.1917-.04093-.2232-.16204-.041-.156-.0813-.31368-.1642-.47404-.0899.15734-.1248.31066-.1644.45894-.037.13856-.0987.18955-.2424.17714-.1591-.01342-.3205-.00302-.4809-.00302l-.0044.04864c.146.10904.2907.22109.4393.32677.0692.04931.0893.09628.0564.18116-.0671.16774-.1185.34455-.1862.54584.1933-.07213.3198-.19089.4534-.29422.0933-.0718.1584-.08555.2548-.00269.1322.11373.2805.20901.4628.34186-.0705-.21739-.1165-.38883-.1823-.55187-.0456-.1134-.0218-.17982.0769-.24558.139-.08957.2682-.19458.4011-.29388zm-9.79568 5.87099c.1752-.1281.32557-.2315.46788-.3445.07485-.0594.12754-.0584.20138.002.14131.1134.29235.2154.46453.3405-.03356-.21-.10338-.3731-.16044-.5388-.03624-.105-.02584-.1738.07351-.2395.14533-.096.28026-.2084.41955-.314-.1552-.037-.3154-.0484-.47426-.0336-.16782.0185-.23495-.0493-.27321-.2043-.03039-.1518-.08179-.2986-.15272-.4361-.08794.1717-.13023.3381-.17688.5012-.0292.103-.07552.1449-.18595.1392-.17856-.009-.35779-.0023-.53702-.0023.11199.1259.24153.235.38464.324.14164.0832.15406.1765.09465.3161-.06815.1573-.11674.3223-.14466.4915zm6.13178-11.45952c-.0694.20465-.1342.36333-.1758.52772-.0302.12111-.0863.1617-.2091.15365-.1679-.01073-.3357-.00268-.5035-.00268.11598.13194.2491.24781.3957.34455.0957.06474.1343.12278.0829.2449-.0688.16137-.1087.33548-.1765.55321.1846-.13419.3323-.23249.4679-.34521.0822-.0671.1342-.07414.2252-.0057.1366.10366.2658.22477.4675.3167-.0671-.21002-.1191-.37843-.1775-.5445-.0302-.08555-.0182-.14191.0617-.19693.1497-.10299.291-.21873.4364-.32911-.172-.0338-.3477-.04508-.5226-.03355-.1138.00571-.1722-.03086-.2014-.14459-.0416-.16607-.1021-.32777-.1699-.53712zm1.4685 9.44222c.0986-.0691.1708-.1184.2413-.1697.3272-.2379.3269-.2375.6595.0074.0672.0499.1397.0942.2464.1657-.0671-.2087-.1027-.367-.1658-.514-.0584-.1362-.0175-.2076.0953-.2865.1272-.0892.2685-.1677.3857-.3288-.1961 0-.3615-.0083-.5253.0031-.1168.008-.1678-.0336-.2014-.143-.0473-.161-.0836-.3284-.1823-.51325-.061.18515-.1211.33315-.1574.48645-.0319.1342-.0973.1802-.2329.1704-.1625-.0117-.3263-.003-.4897-.003.1113.1311.2421.2443.388.3355.1289.0775.1359.1641.0876.2892-.0571.152-.1175.3053-.148.5019z" fill="#0153bf"/><g fill="#f2f306"><path d="m7.38862 3.29461c.05874-.18552.11177-.37339.17823-.55623.03356-.09427.02047-.15097-.06411-.20868-.15893-.10614-.3053-.22994-.43633-.36903.18158 0 .36316-.00604.54407.00201.10237.0047.15205-.03355.17957-.12849.04766-.16506.10338-.32777.16782-.52638.09901.18653.13425.35964.18527.52671.02887.09763.07485.13219.17621.12783.17621-.00806.35343-.00235.52998-.00235.00671.01476.01309.02952.0198.04395-.13425.10064-.26113.21001-.40109.30193-.11412.07314-.13425.14829-.08693.2741.05975.15667.12587.31502.14869.52-.17386-.12916-.31886-.23484-.46016-.34354-.07049-.05435-.12553-.06038-.20139 0-.15406.11843-.30207.24893-.47761.33549z"/><path d="m2.95988 8.86708c-.14552-.06972-.27917-.16187-.39606-.27309-.13425-.12446-.24065-.11171-.3692.00336-.11143.10065-.23931.17982-.37827.28181.01913-.18653.0819-.33549.14231-.4821.06713-.16304.02719-.24893-.11277-.33951-.12654-.08186-.26012-.16271-.38398-.31166.19166 0 .35176-.01107.50951.00335.15775.01443.21581-.04864.2524-.18921.03658-.14057.06914-.29087.15708-.44284.08861.16573.12654.32944.17151.48947.02853.10065.07519.14862.18628.14157.14433-.00872.28966-.00234.43466 0 .03088 0 .07518-.00905.07921.03557.00201.01979-.0245.04763-.04498.0634-.11009.08521-.21581.17848-.33564.24793-.11982.06944-.1215.14727-.07921.26.05874.15835.10573.3224.16715.51195z"/><path d="m13.3004 6.05013c-.1429-.10468-.289-.20499-.4272-.3157-.0735-.05837-.1256-.06273-.2014 0-.1451.11856-.3026.22093-.4699.30529.0577-.17713.1104-.35595.1755-.5304.0336-.08823.0192-.13688-.0611-.19089-.1602-.10607-.3079-.22987-.4403-.36904.1601 0 .3215-.01174.4803.00336.1534.01476.2198-.05066.2557-.18854.039-.14795.0913-.29255.1467-.46733.1091.18518.138.35762.1886.52067.0336.10803.086.13822.1907.13419.1702-.00704.3407 0 .5108 0l.0145.04228c-.144.1097-.284.22477-.433.32676-.0799.05468-.0916.10333-.0581.19257.0641.16975.1118.34588.1678.51933z"/><path d="m2.25317 4.94659c.16782 0 .34001-.00872.50917.00302.13157.00906.18729-.04059.21783-.16472.03793-.15365.09801-.30194.15876-.48411.10069.17311.13593.33549.17856.49048.03356.1248.09364.16774.22219.15835.17124-.01312.34347-.00102.51118.0359-.14063.10568-.27623.21941-.42391.31401-.10069.06408-.11076.12782-.07183.23115.06572.16946.11145.346.13627.52604-.14533-.10567-.29469-.20632-.43465-.31871-.07753-.06273-.13057-.06709-.21246-.00302-.14265.11172-.28026.23317-.4746.3318.06713-.20968.11949-.39185.18527-.57033.03155-.08454.01343-.12916-.05806-.17881-.15406-.10769-.30208-.22478-.45177-.33784z"/><path d="m2.25451 10.5215c.1836 0 .36921-.0054.55146.0023.097.0044.13829-.0336.16379-.1221.04733-.1651.10472-.3268.16782-.52572.1007.17742.13426.34492.17991.50322.03188.1117.08458.15.20138.1433.17017-.0104.34135-.0027.51219-.0027l.01846.0426c-.14164.1087-.27825.2251-.42694.3234-.09297.0614-.10237.1208-.06914.2191.05673.1697.13694.3354.14366.5431-.15675-.1164-.30208-.2107-.43097-.3241-.09297-.0822-.15405-.063-.23864.0064-.11143.0913-.23494.1677-.35343.2506-.01745.0121-.03692.0436-.06947.0138-.03256-.0299-.00739-.047 0-.0715.05001-.1473.09398-.2972.14969-.4425.03155-.0825.01444-.1308-.05739-.1812-.15775-.11-.30879-.2288-.46251-.3442z"/><path d="m5.19346 2.30282c.05303.16338.11244.32475.15674.49048.02652.10065.07586.1342.17622.1285.17621-.00705.35276-.00202.56622-.00202-.13727.15634-.28126.24826-.41988.34086-.11379.07649-.13594.14996-.08492.27443.06209.15298.10438.31435.16513.50323-.15189-.06983-.29099-.16464-.41149-.28047-.1262-.11206-.21884-.09796-.33866.00235-.12369.11175-.26133.20704-.40949.28348.06445-.19659.11412-.36534.17588-.5294.03927-.105.0245-.17277-.07384-.23786-.15305-.09961-.29173-.21971-.41217-.35695.16312 0 .32759-.01174.48937.00335.14701.01376.20742-.04932.24132-.18016.0386-.14962.0923-.29556.13929-.44284z"/><path d="m7.07116 13.2953c.17118 0 .34269-.0057.51387.002.10573.0047.16144-.0282.19064-.1342.04532-.1654.1054-.3264.16783-.5166.10606.1805.13257.3606.1893.5284.03054.0895.07115.1248.16513.1218.18058-.0061.36115-.0021.54173-.0021l.01242.0416c-.14366.1084-.28496.2208-.43231.3245-.08055.0567-.09834.1083-.06478.2076.05639.1658.13224.3285.15674.5482-.15439-.1107-.29099-.1916-.40612-.2956-.11512-.104-.20138-.0912-.31047.0051-.12452.1066-.26295.1959-.41149.2653.05169-.162.09532-.3274.15775-.4851.04598-.1167.03658-.1922-.07653-.2647-.14365-.0916-.27455-.2013-.41116-.3049z"/><path d="m9.85455 12.5554c.18155 0 .36345-.0064.54445.002.1087.0053.1523-.0336.1842-.1383.0494-.162.0856-.3307.1853-.5109.0634.1953.1232.3613.1698.5311.0252.0916.0672.1238.1635.1197.1765-.0073.3534-.002.576-.002-.1078.1242-.2357.2293-.3783.311-.149.093-.1866.1909-.1114.3526.0539.1161.0904.2394.1084.366.0037.0259.0272.0507-.0061.0671-.0126.0056-.0267.0069-.0401.0035-.0134-.0033-.0252-.011-.0337-.0219-.1343-.1342-.2856-.3053-.4518-.3197-.1661-.0145-.2957.1905-.4484.2898-.0336.0228-.0651.0634-.1272.0386.047-.1402.0832-.2852.143-.4193.0701-.1581.049-.2627-.1091-.3537-.1363-.0785-.25477-.1872-.3813-.2824z"/><path d="m14.4246 7.81272c-.1342.10065-.2621.20431-.4001.29623-.0986.0671-.1225.13218-.0768.24558.0671.16304.1117.33548.1822.55187-.1822-.13419-.3306-.22813-.4628-.34186-.0964-.08286-.1615-.06911-.2548.00269-.1342.10333-.2601.22209-.4534.29422.0671-.2013.1201-.37642.1863-.54584.0335-.08488.0127-.13184-.0564-.18116-.1487-.10568-.2934-.21773-.4394-.32676l.0044-.04865c.1604 0 .3219-.0104.481.00302.1436.01241.2054-.03858.2423-.17714.0396-.14828.0745-.30194.1644-.45894.083.16036.1232.31804.1642.47404.0315.12111.0919.17211.2232.16204.1634-.01275.3286-.00302.4927-.00302z"/><path d="m4.62882 13.6831c.02884-.169.07832-.3339.14735-.4908.05941-.1396.04699-.2329-.09465-.3161-.14311-.089-.27265-.1981-.38464-.324.17856 0 .35779-.0068.53702.0023.11043.0057.15674-.0362.18595-.1392.04665-.1631.08894-.3295.17688-.5012.07093.1375.12233.2843.15272.4361.03759.155.10606.2228.27321.2043.15886-.0148.31906-.0034.47426.0336-.13929.1056-.27422.218-.41955.314-.1007.0671-.10976.1342-.07351.2395.05706.1657.12822.3288.16044.5388-.17219-.1251-.32323-.2271-.46453-.3405-.07485-.0604-.12754-.0614-.20138-.002-.14399.1137-.29436.217-.46957.3452z"/><path d="m10.7602 2.22266c.0671.20934.1282.37104.1712.53677.0298.11373.0882.1503.2013.1446.175-.01153.3506-.00025.5226.03355-.145.11037-.2863.22611-.4363.32911-.0799.05502-.092.11138-.0618.19693.0584.16774.1095.33549.1776.5445-.2014-.09193-.3309-.21304-.4676-.3167-.0899-.0671-.1429-.0624-.2252.0057-.1342.11272-.2833.21035-.4679.34521.0672-.21806.1078-.39185.1766-.55321.0524-.12212.0127-.18016-.0829-.24491-.1467-.09673-.27975-.2126-.39573-.34454.16783 0 .33563-.00805.50343.00268.1229.00805.1789-.03355.2091-.15365.0413-.16271.1061-.3214.1756-.52604z"/><path d="m12.2295 11.6656c.0306-.1966.092-.35.1504-.5033.0483-.1251.0413-.2117-.0876-.2892-.1459-.0912-.2767-.2043-.388-.3354.1635 0 .3272-.0088.4897.003.1343.0097.2014-.0366.2329-.1705.0363-.1533.0964-.3019.1574-.48641.0987.18481.1343.35221.1823.51331.0336.11.0832.1509.2014.1429.1638-.0114.3292-.003.5253-.003-.1155.1627-.2585.2395-.3857.3288-.1128.0788-.1537.1503-.0953.2865.0631.1469.1007.3053.1658.5139-.1067-.0714-.1786-.1157-.2464-.1657-.3326-.2449-.3322-.2452-.6595-.0074-.0718.054-.144.1033-.2427.1725z"/><path d="m7.38574 3.28818.00906-.00302-.00738.00939z"/></g></svg>