<svg width="20" height="20" viewBox="0 0 20 20" fill="none" xmlns="http://www.w3.org/2000/svg">
<path d="M9.79338 3.51386C9.16521 4.2789 8.16013 4.88232 7.15505 4.79612C7.02942 3.76169 7.52149 2.66261 8.09731 1.98376C8.72549 1.19717 9.82479 0.636851 10.7147 0.59375C10.8194 1.67128 10.4111 2.72726 9.79338 3.51386ZM10.7042 5.00085C9.24897 4.91464 8.00309 5.85209 7.31209 5.85209C6.61063 5.85209 5.55321 5.04395 4.40155 5.0655C2.9044 5.08705 1.51195 5.95985 0.747669 7.34986C-0.822768 10.1299 0.339355 14.2461 1.85744 16.5089C2.60078 17.6295 3.4907 18.8579 4.66329 18.8148C5.77307 18.7717 6.21279 18.0713 7.55289 18.0713C8.90347 18.0713 9.29084 18.8148 10.4634 18.7932C11.6779 18.7717 12.4422 17.6726 13.1855 16.552C14.0336 15.2805 14.3791 14.0413 14.4 13.9767C14.3791 13.9551 12.0548 13.0392 12.0339 10.2807C12.0129 7.97483 13.8661 6.87575 13.9498 6.8111C12.9028 5.21635 11.2696 5.04395 10.7042 5.00085Z" fill="#1D1D1B"/>
</svg>
