<svg width="9" height="6" viewBox="0 0 9 6" fill="none" xmlns="http://www.w3.org/2000/svg">
<path d="M8.09777 1.6136L4.77624 5.0286C4.63577 5.16905 4.44534 5.24794 4.2468 5.24794C4.04826 5.24794 3.85783 5.16905 3.71735 5.0286L0.398327 1.6136C0.350754 1.56703 0.312954 1.51142 0.287148 1.45003C0.261341 1.38864 0.248047 1.3227 0.248047 1.2561C0.248047 1.18949 0.261341 1.12356 0.287148 1.06216C0.312954 1.00077 0.350754 0.945162 0.398327 0.898597C0.49191 0.805471 0.618504 0.7532 0.750458 0.7532L7.74439 0.751953C7.81003 0.751953 7.87502 0.764904 7.93566 0.790067C7.99629 0.815229 8.05138 0.852108 8.09777 0.898597C8.14534 0.945162 8.18314 1.00077 8.20895 1.06216C8.23475 1.12356 8.24805 1.18949 8.24805 1.2561C8.24805 1.3227 8.23475 1.38864 8.20895 1.45003C8.18314 1.51142 8.14534 1.56703 8.09777 1.6136Z" fill="#1D1D1B"/>
</svg>
