<svg width="20" height="20" viewBox="0 0 20 20" fill="none" xmlns="http://www.w3.org/2000/svg">
<path d="M2.3223 2.83607C2.09611 3.07973 1.98172 3.39158 2.00238 3.70824V17.4646C1.98289 17.7812 2.09714 18.0926 2.3223 18.3368L2.37466 18.3838L10.9544 10.6752V10.4924L2.37466 2.78906L2.3223 2.83607Z" fill="url(#paint0_linear_1620_131234)"/>
<path d="M13.815 13.2385L10.9531 10.669V10.4862L13.815 7.92188L13.8789 7.95321L17.2701 9.68189C18.2415 10.1728 18.2415 10.9823 17.2701 11.4785L13.8789 13.2071L13.815 13.2385Z" fill="url(#paint1_linear_1620_131234)"/>
<path d="M13.8782 13.2051L10.9698 10.5938L2.32031 18.3285C2.51968 18.4756 2.7679 18.5591 3.0259 18.5657C3.28389 18.5723 3.53702 18.5017 3.74542 18.365L13.8608 13.2051" fill="url(#paint2_linear_1620_131234)"/>
<path d="M13.8782 7.95216L3.74542 2.78699C3.53925 2.64468 3.28445 2.57104 3.02453 2.57866C2.76461 2.58628 2.5157 2.67469 2.32031 2.82877L10.9524 10.5791L13.8782 7.95216Z" fill="url(#paint3_linear_1620_131234)"/>
<path opacity="0.1" d="M13.8161 13.1484L3.74725 18.2771C3.5464 18.4114 3.30262 18.484 3.05214 18.484C2.80167 18.484 2.55789 18.4114 2.35704 18.2771L2.30469 18.3241L2.35704 18.3711C2.55789 18.5054 2.80167 18.578 3.05214 18.578C3.30262 18.578 3.5464 18.5054 3.74725 18.3711L13.8626 13.2111L13.8161 13.1484Z" fill="#1D1D1B"/>
<path opacity="0.07" d="M2.32137 18.2446C2.09636 17.9986 1.98243 17.6854 2.0022 17.3672V17.456C1.98275 17.7725 2.09674 18.084 2.32137 18.3282L2.3736 18.2812L2.32137 18.2446Z" fill="#1D1D1B"/>
<path opacity="0.07" d="M17.2716 11.3799L13.8164 13.1451L13.8804 13.2026L17.2716 11.453C17.4705 11.3744 17.6426 11.2499 17.7703 11.0921C17.8981 10.9343 17.9769 10.7488 17.9987 10.5547C17.959 10.7341 17.8723 10.9025 17.7459 11.046C17.6195 11.1895 17.4569 11.3039 17.2716 11.3799Z" fill="#1D1D1B"/>
<path opacity="0.3" d="M3.74893 2.88013L17.2729 9.76877C17.4565 9.84287 17.618 9.95478 17.7443 10.0954C17.8706 10.2361 17.9582 10.4015 18 10.5783C17.9794 10.3838 17.9011 10.1979 17.7732 10.0399C17.6453 9.88191 17.4725 9.75761 17.2729 9.67999L3.74893 2.78612C2.79499 2.2952 2.00391 2.70256 2.00391 3.70008V3.78887C2.00391 2.79657 2.79499 2.38398 3.74893 2.88013Z" fill="white"/>
<defs>
<linearGradient id="paint0_linear_1620_131234" x1="10.1982" y1="3.56201" x2="-0.181492" y2="15.1226" gradientUnits="userSpaceOnUse">
<stop stop-color="#008EFF"/>
<stop offset="0.01" stop-color="#008FFF"/>
<stop offset="0.26" stop-color="#00ACFF"/>
<stop offset="0.51" stop-color="#00C0FF"/>
<stop offset="0.76" stop-color="#00CDFF"/>
<stop offset="1" stop-color="#00D1FF"/>
</linearGradient>
<linearGradient id="paint1_linear_1620_131234" x1="17.3864" y1="10.5802" x2="0.622586" y2="10.5802" gradientUnits="userSpaceOnUse">
<stop stop-color="#FFD800"/>
<stop offset="1" stop-color="#FF8A00"/>
</linearGradient>
<linearGradient id="paint2_linear_1620_131234" x1="12.2903" y1="12.0039" x2="-1.78132" y2="27.6763" gradientUnits="userSpaceOnUse">
<stop stop-color="#FF3A44"/>
<stop offset="1" stop-color="#B11162"/>
</linearGradient>
<linearGradient id="paint3_linear_1620_131234" x1="0.14484" y1="-1.75146" x2="6.43346" y2="5.24679" gradientUnits="userSpaceOnUse">
<stop stop-color="#328E71"/>
<stop offset="0.07" stop-color="#2D9571"/>
<stop offset="0.48" stop-color="#15BD74"/>
<stop offset="0.8" stop-color="#06D575"/>
<stop offset="1" stop-color="#00DE76"/>
</linearGradient>
</defs>
</svg>
