<svg fill="none" height="27" viewBox="0 0 28 27" width="28" xmlns="http://www.w3.org/2000/svg"><path clip-rule="evenodd" d="m14.6581.728174c-.3222-.894307-1.5931-.876794-1.8905.026055l-2.346 7.119861c-.1351.41002-.51806.68706-.94976.68706h-7.75329c-.930224 0-1.356501 1.15884-.64801 1.76165l6.58888 5.6059c.30554.2599.42616.6773.30637 1.0602l-2.40298 7.6804c-.28592.9138.75222 1.6682 1.5331 1.1141l6.32479-4.4883c.3588-.2546.8417-.2449 1.1899.024l6.1898 4.7798c.7692.594 1.8481-.1476 1.5691-1.0786l-2.4244-8.0907c-.1164-.3884.0133-.8087.3284-1.064l6.8218-5.5275c.732-.59313.3126-1.77695-.6296-1.77695h-8.2825c-.4216 0-.7978-.26439-.9408-.661z" fill="#111" fill-rule="evenodd"/></svg>