<svg width="31" height="30" viewBox="0 0 31 30" fill="none" xmlns="http://www.w3.org/2000/svg">
<path fill-rule="evenodd" clip-rule="evenodd" d="M15.8114 2.72817C15.4892 1.83387 14.2184 1.85138 13.9209 2.75423L11.5749 9.87409C11.4398 10.2841 11.0569 10.5611 10.6252 10.5611H2.87187C1.94165 10.5611 1.51537 11.72 2.22386 12.3228L8.81274 17.9287C9.11828 18.1886 9.2389 18.606 9.11911 18.9889L6.71613 26.6693C6.43021 27.5831 7.46835 28.3375 8.24923 27.7834L14.574 23.2951C14.9328 23.0405 15.4158 23.0502 15.7639 23.3191L21.9537 28.0989C22.723 28.6929 23.8018 27.9513 23.5228 27.0203L21.0984 18.9296C20.982 18.5412 21.1117 18.1209 21.4268 17.8656L28.2486 12.3381C28.9806 11.745 28.5612 10.5611 27.619 10.5611H19.3365C18.915 10.5611 18.5387 10.2968 18.3958 9.90015L15.8114 2.72817Z" fill="#111111"/>
<mask id="mask0_9793_65944" style="mask-type:alpha" maskUnits="userSpaceOnUse" x="1" y="2" width="28" height="27">
<path fill-rule="evenodd" clip-rule="evenodd" d="M15.8114 2.72817C15.4892 1.83387 14.2184 1.85138 13.9209 2.75423L11.5749 9.87409C11.4398 10.2841 11.0569 10.5611 10.6252 10.5611H2.87187C1.94165 10.5611 1.51537 11.72 2.22386 12.3228L8.81274 17.9287C9.11828 18.1886 9.2389 18.606 9.11911 18.9889L6.71613 26.6693C6.43021 27.5831 7.46835 28.3375 8.24923 27.7834L14.574 23.2951C14.9328 23.0405 15.4158 23.0502 15.7639 23.3191L21.9537 28.0989C22.723 28.6929 23.8018 27.9513 23.5228 27.0203L21.0984 18.9296C20.982 18.5412 21.1117 18.1209 21.4268 17.8656L28.2486 12.3381C28.9806 11.745 28.5612 10.5611 27.619 10.5611H19.3365C18.915 10.5611 18.5387 10.2968 18.3958 9.90015L15.8114 2.72817Z" fill="white"/>
</mask>
<g mask="url(#mask0_9793_65944)">
<rect x="19.8406" y="1.49854" width="19.6874" height="28.5" rx="1" fill="#D5D8E3"/>
</g>
</svg>
