<svg width="33" height="33" viewBox="0 0 33 33" fill="none" xmlns="http://www.w3.org/2000/svg">
<g clip-path="url(#clip0_2309_6141)">
<g clip-path="url(#clip1_2309_6141)">
<path d="M17.1929 8.67737L18.8062 12.7707C18.9294 13.087 19.2334 13.2959 19.5729 13.2974H23.6595C23.9844 13.3042 24.2762 13.4977 24.4088 13.7943C24.5414 14.0909 24.4911 14.4374 24.2795 14.684L21.3462 18.084C21.1569 18.2935 21.0844 18.5835 21.1529 18.8574L22.3195 23.0907C22.3964 23.4026 22.2856 23.7307 22.0355 23.9322C21.7854 24.1337 21.4412 24.1721 21.1529 24.0307L16.8862 21.4307C16.6267 21.2707 16.2991 21.2707 16.0395 21.4307L11.9262 23.9374C11.627 24.1141 11.2492 24.0848 10.9808 23.8641C10.7124 23.6434 10.6107 23.2784 10.7262 22.9507L12.0595 18.904C12.1623 18.6103 12.0929 18.2839 11.8795 18.0574L8.72621 14.724C8.49953 14.4814 8.43705 14.128 8.56681 13.8223C8.69657 13.5167 8.9942 13.3162 9.32621 13.3107H13.3262C13.6638 13.3083 13.9655 13.0993 14.0862 12.784L15.6995 8.69071C15.8299 8.39656 16.1202 8.20582 16.4419 8.20291C16.7636 8.20007 17.0573 8.3856 17.1929 8.67737Z" fill="#1D1D1B"/>
</g>
</g>
<defs>
<clipPath id="clip0_2309_6141">
<rect width="16" height="16" fill="white" transform="translate(8.5 8.20264)"/>
</clipPath>
<clipPath id="clip1_2309_6141">
<rect width="16" height="16" fill="white" transform="translate(8.5 8.20288)"/>
</clipPath>
</defs>
</svg>
