<svg width="33" height="33" viewBox="0 0 33 33" fill="none" xmlns="http://www.w3.org/2000/svg">
<g clip-path="url(#clip0_2309_6131)">
<path d="M16.5 8.60156C12.0817 8.60156 8.5 12.1833 8.5 16.6016C8.5 21.0198 12.0817 24.6016 16.5 24.6016C20.9183 24.6016 24.5 21.0198 24.5 16.6016C24.5 14.4798 23.6571 12.445 22.1569 10.9447C20.6566 9.44442 18.6217 8.60156 16.5 8.60156ZM15.3267 19.8682C15.3131 19.4874 15.5324 19.1365 15.8807 18.9819C16.229 18.8272 16.6363 18.8999 16.9097 19.1654C17.183 19.4309 17.2675 19.8359 17.1231 20.1886C16.9787 20.5413 16.6344 20.7707 16.2533 20.7682C16.0095 20.7773 15.7726 20.6863 15.5976 20.5164C15.4226 20.3464 15.3247 20.1122 15.3267 19.8682ZM17.8333 16.6016C17.2333 17.0816 17.1067 17.2682 17.0267 17.7149C16.9793 18.0978 16.6525 18.3845 16.2667 18.3816C16.0662 18.401 15.8677 18.3288 15.7266 18.1851C15.5855 18.0414 15.5169 17.8416 15.54 17.6416C15.54 16.8882 15.7867 16.4682 16.6533 15.7749C17.24 15.3082 17.4467 15.0682 17.4467 14.6349C17.4284 14.386 17.3091 14.1553 17.1164 13.9967C16.9237 13.838 16.6745 13.7651 16.4267 13.7949C15.9328 13.7617 15.4723 14.0455 15.28 14.5016C15.1721 14.7744 14.9067 14.9522 14.6133 14.9482C14.4331 14.9602 14.2565 14.8938 14.1288 14.766C14.0011 14.6383 13.9347 14.4618 13.9467 14.2816C13.9769 13.7833 14.2197 13.3219 14.6133 13.0149C15.1355 12.6038 15.7898 12.3975 16.4533 12.4349C18 12.4349 19.0333 13.3016 19.0333 14.5882C19.04 15.4749 18.5933 15.9949 17.8333 16.6016Z" fill="#1D1D1B"/>
</g>
<defs>
<clipPath id="clip0_2309_6131">
<rect width="16" height="16" fill="white" transform="translate(8.5 8.60156)"/>
</clipPath>
</defs>
</svg>
