<svg width="32" height="32" viewBox="0 0 32 32" fill="none" xmlns="http://www.w3.org/2000/svg">
<path d="M25.9423 11.0714C25.9087 11.0433 25.8756 11.0203 25.8445 11.001L24.7229 10.3813C24.3117 10.2399 23.8298 10.2755 23.4122 10.4921C23.4094 10.4935 23.4061 10.4953 23.4034 10.4967L14.5442 15.1479C13.0129 13.9702 10.8292 13.7338 8.94993 14.7205C6.40754 16.0553 5.38792 19.1213 6.67265 21.5684C7.95738 24.0154 11.0602 24.9172 13.6026 23.5824C15.6205 22.523 16.6773 20.3734 16.3866 18.3082L20.4218 16.1896L21.4703 16.5422L22.3043 14.2411L22.295 14.2459L22.2971 14.2273L23.5517 14.5464L25.1027 13.7321C25.3992 13.5764 25.6542 13.3551 25.8409 13.0902L26.1984 12.3648C26.4189 11.9167 26.3213 11.3818 25.9428 11.0711L25.9423 11.0714ZM10.1866 21.2039C9.52069 21.5535 8.70808 21.3173 8.3716 20.6764C8.03511 20.0355 8.30214 19.2325 8.96802 18.8829C9.6339 18.5333 10.4465 18.7695 10.783 19.4104C11.1195 20.0513 10.8525 20.8543 10.1866 21.2039Z" fill="#1D1D1B"/>
</svg>
