<svg width="33" height="33" viewBox="0 0 33 33" fill="none" xmlns="http://www.w3.org/2000/svg">
<g clip-path="url(#clip0_2309_6108)">
<path d="M17.9641 15.2722C18.03 15.0218 18.1509 14.7992 18.3222 14.614L22.2062 10.4664C22.4977 10.1764 22.9031 10.0741 23.2889 10.1746C23.6747 10.2751 23.9811 10.5837 24.0846 10.9789C24.188 11.374 24.1027 11.8037 23.8203 12.0983L19.9272 16.2412C19.7514 16.4124 19.5252 16.5462 19.2947 16.6188L17.8849 16.9935C17.8111 17.0271 17.7146 17.0137 17.6552 16.9482C17.5911 16.8922 17.5733 16.7886 17.6106 16.7129L17.9641 15.2722Z" fill="#1D1D1B"/>
<path fill-rule="evenodd" clip-rule="evenodd" d="M22.5502 13.4495C22.1171 12.8129 21.5839 12.2497 20.9731 11.7828L18.3224 14.6134C18.1511 14.7986 18.0302 15.0212 17.9643 15.2716L17.6107 16.7123C17.5735 16.788 17.5913 16.8916 17.6553 16.9476C17.6672 16.9608 17.6806 16.9718 17.695 16.9808C17.7525 17.0166 17.8261 17.0198 17.8851 16.9929L19.2949 16.6182C19.5253 16.5456 19.7515 16.4117 19.9274 16.2406L22.5502 13.4495ZM23.0299 14.2663L20.5759 16.8777L20.5614 16.8918C20.2826 17.1633 19.9324 17.3703 19.5681 17.4851L19.5484 17.4913L18.1596 17.8604C17.7901 17.9849 17.3369 17.9177 17.017 17.595C16.6975 17.2865 16.611 16.8283 16.7411 16.4423L17.0852 15.0403C17.1878 14.6503 17.3796 14.2942 17.655 13.9963L17.6589 13.9921L20.2067 11.2714C19.1581 10.6656 17.9411 10.3186 16.6429 10.3186C12.698 10.3186 9.50284 13.5227 9.50284 17.4587C9.50284 18.8063 9.87769 20.0558 10.5203 21.1269L9.52069 24.1346C9.42251 24.4113 9.69026 24.679 9.97587 24.5809L12.9747 23.5812C14.0457 24.2239 15.2952 24.5987 16.6429 24.5987C20.5878 24.5987 23.7829 21.4035 23.7829 17.4587C23.7829 16.312 23.5118 15.2275 23.0299 14.2663Z" fill="#1D1D1B"/>
<path fill-rule="evenodd" clip-rule="evenodd" d="M12.2272 18.3781C12.2272 18.0494 12.4936 17.783 12.8223 17.783L15.723 17.783C16.0516 17.783 16.3181 18.0494 16.3181 18.3781C16.3181 18.7068 16.0516 18.9732 15.723 18.9732H12.8223C12.4936 18.9732 12.2272 18.7068 12.2272 18.3781Z" fill="white"/>
</g>
<defs>
<clipPath id="clip0_2309_6108">
<rect width="15" height="15" fill="white" transform="translate(9.5 9.60132)"/>
</clipPath>
</defs>
</svg>
