<svg width="33" height="32" viewBox="0 0 33 32" fill="none" xmlns="http://www.w3.org/2000/svg">
<g clip-path="url(#clip0_1810_141480)">
<g clip-path="url(#clip1_1810_141480)">
<path fill-rule="evenodd" clip-rule="evenodd" d="M18.2075 13.7074C18.1219 13.6191 18.0738 13.5011 18.0734 13.3781V8.00005H12.5386C12.3513 7.99844 12.1655 8.03378 11.9919 8.104C11.8182 8.17422 11.6601 8.27796 11.5265 8.40932C11.3929 8.54068 11.2865 8.69708 11.2133 8.86958C11.1402 9.04208 11.1017 9.22731 11.1001 9.41469V22.5854C11.1017 22.7728 11.1402 22.958 11.2133 23.1305C11.2865 23.303 11.3929 23.4594 11.5265 23.5908C11.6601 23.7221 11.8182 23.8259 11.9919 23.8961C12.1655 23.9663 12.3513 24.0016 12.5386 24H22.4621C22.6494 24.0016 22.8352 23.9663 23.0089 23.8961C23.1826 23.8259 23.3407 23.7221 23.4743 23.5908C23.6079 23.4594 23.7143 23.303 23.7874 23.1305C23.8606 22.958 23.8991 22.7728 23.9006 22.5854V13.8415H18.5366C18.4137 13.8411 18.2957 13.793 18.2075 13.7074ZM23.3277 12.9268C22.2914 11.8781 20.1214 9.69513 18.9998 8.62196V12.6768C18.9998 12.8149 19.1118 12.9268 19.2498 12.9268H23.3277ZM12.8752 19.5001C12.8752 19.1549 13.155 18.8751 13.5002 18.8751H21.5002C21.8454 18.8751 22.1252 19.1549 22.1252 19.5001C22.1252 19.8452 21.8454 20.1251 21.5002 20.1251H13.5002C13.155 20.1251 12.8752 19.8452 12.8752 19.5001ZM13.5002 15.3754C13.155 15.3754 12.8752 15.6552 12.8752 16.0003C12.8752 16.3455 13.155 16.6253 13.5002 16.6253H18.7004C19.0456 16.6253 19.3254 16.3455 19.3254 16.0003C19.3254 15.6552 19.0456 15.3754 18.7004 15.3754H13.5002Z" fill="#292927"/>
</g>
</g>
<defs>
<clipPath id="clip0_1810_141480">
<rect width="15" height="15" fill="white" transform="translate(9 8.5)"/>
</clipPath>
<clipPath id="clip1_1810_141480">
<rect width="16" height="16" fill="white" transform="translate(9.5 8)"/>
</clipPath>
</defs>
</svg>
