<svg width="33" height="32" viewBox="0 0 33 32" fill="none" xmlns="http://www.w3.org/2000/svg">
<path fill-rule="evenodd" clip-rule="evenodd" d="M15.1427 23.7501V13.9597C15.1427 13.5079 14.6782 13.2054 14.265 13.3881L7.74452 16.2709C7.29193 16.471 7 16.9192 7 17.4141V23.7501C7 24.4404 7.55962 25 8.24995 25H13.8927C14.5831 25 15.1427 24.4404 15.1427 23.7501ZM9.15332 18.4C9.15332 18.0686 9.42195 17.8 9.75332 17.8H12.6247C12.956 17.8 13.2247 18.0686 13.2247 18.4C13.2247 18.7314 12.956 19 12.6247 19H9.75332C9.42195 19 9.15332 18.7314 9.15332 18.4ZM9.75332 20.9139C9.42195 20.9139 9.15332 21.1825 9.15332 21.5139C9.15332 21.8453 9.42195 22.1139 9.75332 22.1139H12.6247C12.956 22.1139 13.2247 21.8453 13.2247 21.5139C13.2247 21.1825 12.956 20.9139 12.6247 20.9139H9.75332Z" fill="#1D1D1B"/>
<path fill-rule="evenodd" clip-rule="evenodd" d="M16.5002 8.24995C16.5002 7.55962 17.0599 7 17.7502 7H24.7501C25.4404 7 26 7.55962 26 8.24995V23.7501C26 24.4404 25.4404 25 24.7501 25H22.5799V21.6495C22.5799 21.3043 22.3001 21.0245 21.9549 21.0245H20.6716C20.3264 21.0245 20.0466 21.3043 20.0466 21.6495V25H17.7502C17.0599 25 16.5002 24.4404 16.5002 23.7501V8.24995ZM18.5266 11.1985C18.5266 10.8675 18.7949 10.5993 19.1259 10.5993H23.3558C23.6868 10.5993 23.9551 10.8675 23.9551 11.1985C23.9551 11.5295 23.6868 11.7978 23.3558 11.7978H19.1259C18.7949 11.7978 18.5266 11.5295 18.5266 11.1985ZM19.1259 13.711C18.7949 13.711 18.5266 13.9793 18.5266 14.3103C18.5266 14.6412 18.7949 14.9095 19.1259 14.9095H23.3558C23.6868 14.9095 23.9551 14.6412 23.9551 14.3103C23.9551 13.9793 23.6868 13.711 23.3558 13.711H19.1259ZM18.5266 17.421C18.5266 17.0901 18.7949 16.8218 19.1259 16.8218H23.3558C23.6868 16.8218 23.9551 17.0901 23.9551 17.421C23.9551 17.752 23.6868 18.0203 23.3558 18.0203H19.1259C18.7949 18.0203 18.5266 17.752 18.5266 17.421Z" fill="#1D1D1B"/>
</svg>
