<svg width="33" height="32" viewBox="0 0 33 32" fill="none" xmlns="http://www.w3.org/2000/svg">
<path fill-rule="evenodd" clip-rule="evenodd" d="M23.4433 11.6406C23.4433 11.0883 22.9955 10.6406 22.4433 10.6406H9.13281C8.58053 10.6406 8.13281 11.0883 8.13281 11.6406V20.3537C8.13281 20.906 8.58053 21.3537 9.13281 21.3537H22.4433C22.9955 21.3537 23.4433 20.906 23.4433 20.3537V19.062C23.4433 18.5097 22.9955 18.062 22.4433 18.062H21.8679C21.3156 18.062 20.8679 17.6142 20.8679 17.062V15.2451C20.8679 14.6928 21.3156 14.2451 21.8679 14.2451H22.4433C22.9955 14.2451 23.4433 13.7974 23.4433 13.2451V11.6406Z" fill="#1D1D1B"/>
<rect x="21.5234" y="15.4531" width="3.22598" height="1.56426" rx="0.782128" fill="#1D1D1B"/>
</svg>
