<svg width="33" height="32" viewBox="0 0 33 32" fill="none" xmlns="http://www.w3.org/2000/svg">
<path d="M16.5 8C18.0873 8 19.4796 9.06455 19.9037 10.6024C20.3279 12.1403 19.6797 13.7738 18.3191 14.5957C21.03 15.6878 23.0963 17.3569 23.4937 21.592C23.5369 21.9548 23.3547 22.3071 23.0345 22.4799C21.0091 23.506 18.7678 24.0267 16.5 23.9981C14.2344 24.035 11.9932 23.5234 9.96547 22.5065C9.64531 22.3338 9.46309 21.9814 9.50629 21.6187C9.90366 17.3569 11.97 15.6878 14.6809 14.5957C13.3203 13.7738 12.6721 12.1403 13.0963 10.6024C13.5204 9.06455 14.9127 8 16.5 8Z" fill="#1D1D1B"/>
</svg>
