<svg width="33" height="32" viewBox="0 0 33 32" fill="none" xmlns="http://www.w3.org/2000/svg">
<path d="M20.3427 10.0396V10.3115V11H18.9831V10.3115V10.0396C18.9831 9.65432 18.6884 9.35966 18.3031 9.35966H15.697C15.3117 9.35966 15.017 9.65433 15.017 10.0396V10.3115V11H13.6572V10.3115V10.0396C13.6572 8.90644 14.5637 8 15.6968 8H18.3031C19.4363 8 20.3427 8.90644 20.3427 10.0396Z" fill="#292927"/>
<path fill-rule="evenodd" clip-rule="evenodd" d="M10.5 11C9.67157 11 9 11.6716 9 12.5V14H25V12.5C25 11.6716 24.3284 11 23.5 11H10.5ZM25 15H9V21.5C9 22.3284 9.67157 23 10.5 23H23.5C24.3284 23 25 22.3284 25 21.5V15Z" fill="#292927"/>
</svg>
