<svg width="32" height="33" viewBox="0 0 32 33" fill="none" xmlns="http://www.w3.org/2000/svg">
<g clip-path="url(#clip0_3845_163398)">
<g clip-path="url(#clip1_3845_163398)">
<path fill-rule="evenodd" clip-rule="evenodd" d="M19.0242 10.2912C19.2592 10.0383 19.2479 9.63943 18.999 9.40026C18.7502 9.16109 18.358 9.17218 18.123 9.42504L15.5757 12.1665L13.9763 10.6291C13.5325 10.2025 12.8331 10.2223 12.4141 10.6733L11.4573 11.7033C11.1575 12.026 11.0728 12.4983 11.2412 12.9083L11.6394 13.8775C11.8078 14.2875 11.7231 14.7598 11.4233 15.0825L9.89482 16.7279C9.01142 17.6788 9.23184 19.365 10.3843 20.4729L10.9137 20.9818C10.8722 21.0135 10.8326 21.0493 10.7957 21.089L9.27875 22.722C8.92637 23.1013 8.94329 23.6997 9.31655 24.0585C9.68981 24.4173 10.2781 24.4007 10.6304 24.0213L12.1474 22.3884C12.1843 22.3486 12.2172 22.3065 12.246 22.2625L12.4384 22.4473C13.5909 23.5552 15.2583 23.6837 16.1417 22.7328L17.6805 21.0764C17.9806 20.7533 18.4399 20.6407 18.8521 20.7892L19.7927 21.128C20.2049 21.2765 20.6642 21.1639 20.9643 20.8409L21.9205 19.8115C22.3395 19.3605 22.3194 18.649 21.8756 18.2224L20.5484 16.9466L23.0953 14.2049C23.3302 13.952 23.319 13.5531 23.0701 13.3139C22.8213 13.0747 22.4291 13.0858 22.1942 13.3387L19.6473 16.0804L16.4768 13.0327L19.0242 10.2912Z" fill="#1D1D1B"/>
</g>
</g>
<defs>
<clipPath id="clip0_3845_163398">
<rect width="15" height="15" fill="white" transform="translate(8.5 8.69189)"/>
</clipPath>
<clipPath id="clip1_3845_163398">
<rect width="16" height="16" fill="white" transform="translate(8 8.59033)"/>
</clipPath>
</defs>
</svg>
