<svg width="32" height="32" viewBox="0 0 32 32" fill="none" xmlns="http://www.w3.org/2000/svg">
<path d="M11.9786 8.82198C13.561 8.82198 14.9491 9.89838 15.372 11.4534C15.7948 13.0084 15.1486 14.66 13.7921 15.4911C16.4948 16.5953 18.5548 18.283 18.951 22.5652C18.994 22.9321 18.8124 23.2883 18.4932 23.463C16.474 24.5005 14.2395 25.027 11.9786 24.9981C9.71992 25.0353 7.48556 24.5181 5.46405 23.4899C5.14486 23.3152 4.9632 22.959 5.00627 22.5922C5.40243 18.283 7.46243 16.5953 10.1651 15.4911C8.80867 14.66 8.16244 13.0084 8.58529 11.4534C9.00813 9.89838 10.3962 8.82198 11.9786 8.82198ZM19.5949 7.04103C21.0716 7.27018 22.2458 8.42438 22.5247 9.92074C22.8034 11.4171 22.1263 12.9301 20.8349 13.6956C23.5376 14.7998 25.5976 16.4876 25.9937 20.7967C26.0368 21.1635 25.8551 21.5197 25.5359 21.6944C24.0182 22.4799 22.3703 22.97 20.6765 23.1398C20.7029 22.9132 20.7029 22.6841 20.6765 22.4576C20.3068 18.3997 18.5636 16.2631 16.6181 14.9794C16.8196 14.5964 16.9734 14.1893 17.0758 13.7674L17.1199 13.6417C17.2111 13.2444 17.2583 12.8379 17.2607 12.4298C17.2622 11.1312 16.7989 9.87671 15.9578 8.90167C16.6605 7.55763 18.1183 6.81188 19.5949 7.04103Z" fill="#1D1D1B"/>
</svg>
