<svg width="33" height="32" viewBox="0 0 33 32" fill="none" xmlns="http://www.w3.org/2000/svg">
<g clip-path="url(#clip0_1810_141494)">
<path d="M16.5 8.00391V13.2011C16.5 13.473 16.7692 13.6412 16.981 13.5012L18.3367 12.6042C18.4374 12.5376 18.5626 12.5376 18.6633 12.6042L20.019 13.5012C20.2308 13.6412 20.5 13.473 20.5 13.2011V8.00391H21.1533C21.8973 8.00391 22.5 8.59669 22.5 9.33112V22.6755C22.5 23.4073 21.8973 24.0001 21.1507 24.0001H11.8493C11.1027 24.0001 10.5 23.4073 10.5 22.6728V9.33112C10.5 8.59669 11.1027 8.00391 11.8493 8.00391H16.5Z" fill="#1D1D1B"/>
</g>
<defs>
<clipPath id="clip0_1810_141494">
<rect width="16" height="16" fill="white" transform="translate(8.5 8)"/>
</clipPath>
</defs>
</svg>
